<svg xmlns="http://www.w3.org/2000/svg" viewBox="0 0 96 96" role="img" aria-labelledby="vaultLogoTitle vaultLogoDesc">
  <title id="vaultLogoTitle">Vault Logo</title>
  <desc id="vaultLogoDesc">Gradient shield containing stylized letter V</desc>
  <defs>
    <linearGradient id="vaultGrad" x1="0" y1="0" x2="1" y2="1">
      <stop offset="0%" stop-color="#6366F1"/>
      <stop offset="100%" stop-color="#8B5CF6"/>
    </linearGradient>
    <linearGradient id="vaultBg" x1="0" y1="0" x2="0" y2="1">
      <stop offset="0%" stop-color="#0f1627"/>
      <stop offset="100%" stop-color="#0b1220"/>
    </linearGradient>
    <filter id="glow" x="-30%" y="-30%" width="160%" height="160%" color-interpolation-filters="sRGB">
      <feGaussianBlur in="SourceGraphic" stdDeviation="2" result="blur"/>
      <feMerge>
        <feMergeNode in="blur"/>
        <feMergeNode in="SourceGraphic"/>
      </feMerge>
    </filter>
  </defs>
  <rect width="96" height="96" rx="24" fill="url(#vaultBg)"/>
  <path d="M48 18 24 28v20c0 10.6 5.4 20.7 14.4 26.7L48 78l9.6-3.3C66.6 68.7 72 58.6 72 48V28L48 18Z" fill="#111c30" stroke="#1e2b43" stroke-width="2"/>
  <path d="M48 24 30 31.2v16.8c0 8.7 4.4 17 11.7 21.9L48 73l6.3-3.1C61.6 65 66 56.7 66 48V31.2L48 24Z" fill="#0f172a" stroke="#29364f" stroke-width="1.5"/>
  <path filter="url(#glow)" fill="none" stroke="url(#vaultGrad)" stroke-width="4" stroke-linecap="round" stroke-linejoin="round" d="M36 42.5 44.8 56c.9 1.4 2.9 1.4 3.8 0L60 36"/>
  <path fill="url(#vaultGrad)" d="M60.8 33.2a2.2 2.2 0 0 0-3.6-.5L48 45.4l-4.3-6.5c-.9-1.4-2.9-1.4-3.8 0L34 46.8c-.6 1 .2 2.2 1.3 2.2h.2l4.2-6.5 4.3 6.5c.9 1.4 2.9 1.4 3.8 0l9.4-13.3c.5-.7.5-1.6-.4-2.5Z" opacity="0.25"/>
</svg>
